<svg viewBox="0 0 800 600" xmlns="http://www.w3.org/2000/svg">
  <defs>
    <linearGradient id="heroGrad" x1="0" y1="0" x2="1" y2="1">
      <stop offset="0%" stop-color="#1B2330"/>
      <stop offset="100%" stop-color="#324158"/>
    </linearGradient>
  </defs>

  <!-- page background -->
  <rect width="800" height="600" fill="#FFFFFF"/>

  <!-- browser chrome -->
  <rect width="800" height="44" fill="#EEF0F3"/>
  <circle cx="26" cy="22" r="6" fill="#E3A23B"/>
  <circle cx="48" cy="22" r="6" fill="#5FC9BA"/>
  <circle cx="70" cy="22" r="6" fill="#C7CCD6"/>
  <rect x="104" y="10" width="260" height="24" rx="12" fill="#FFFFFF" stroke="#D7DBE2" stroke-width="1.5"/>
  <text x="124" y="27" font-family="monospace" font-size="13" fill="#8B96A8">monshop.tn</text>

  <!-- navbar -->
  <rect x="0" y="44" width="800" height="64" fill="#1B2330"/>
  <text x="32" y="84" font-family="sans-serif" font-size="24" font-weight="700" fill="#FFFFFF">MonShop</text>
  <text x="430" y="82" font-family="sans-serif" font-size="14" fill="#AEB6C4">Accueil</text>
  <text x="520" y="82" font-family="sans-serif" font-size="14" fill="#AEB6C4">Produits</text>
  <text x="615" y="82" font-family="sans-serif" font-size="14" fill="#AEB6C4">Contact</text>

  <!-- cart icon -->
  <g stroke="#E3A23B" stroke-width="2.5" fill="none" stroke-linecap="round" stroke-linejoin="round" transform="translate(722,62)">
    <path d="M2 6 L26 6 L23 27 L5 27 Z"/>
    <path d="M8 6 C8 0, 20 0, 20 6"/>
  </g>
  <circle cx="758" cy="60" r="11" fill="#E3A23B"/>
  <text x="758" y="64" font-size="12" font-weight="700" fill="#1B2330" text-anchor="middle" font-family="sans-serif">3</text>

  <!-- hero banner -->
  <rect x="0" y="108" width="800" height="140" fill="url(#heroGrad)"/>
  <text x="32" y="168" font-family="sans-serif" font-size="32" font-weight="700" fill="#FFFFFF">Nouvelle collection</text>
  <text x="32" y="198" font-family="sans-serif" font-size="15" fill="#AEB6C4">Livraison rapide partout en Tunisie</text>
  <rect x="32" y="212" width="130" height="36" rx="6" fill="#E3A23B"/>
  <text x="97" y="235" font-family="sans-serif" font-size="13" font-weight="600" fill="#1B2330" text-anchor="middle">Découvrir</text>

  <!-- section title -->
  <text x="32" y="290" font-family="sans-serif" font-size="18" font-weight="700" fill="#1F2937">Produits populaires</text>

  <!-- product card 1 -->
  <g transform="translate(32,310)">
    <rect width="166" height="258" rx="8" fill="#FFFFFF" stroke="#E5E7EB" stroke-width="1.5"/>
    <rect x="8" y="8" width="150" height="120" rx="6" fill="#F1F3F6"/>
    <circle cx="58" cy="58" r="14" fill="#E5E7EB"/>
    <path d="M24 110 L70 70 L100 96 L134 60 L150 110 Z" fill="#E5E7EB"/>
    <rect x="14" y="14" width="44" height="20" rx="10" fill="#5FC9BA"/>
    <text x="36" y="28" font-size="11" font-weight="700" fill="#FFFFFF" text-anchor="middle" font-family="sans-serif">-20%</text>
    <text x="8" y="150" font-family="sans-serif" font-size="14" font-weight="600" fill="#1F2937">Sac à dos urbain</text>
    <text x="8" y="172" font-family="sans-serif" font-size="15" font-weight="700" fill="#E3A23B">79,00 DT</text>
    <rect x="8" y="206" width="150" height="36" rx="6" fill="#1B2330"/>
    <text x="83" y="229" font-family="sans-serif" font-size="12" font-weight="600" fill="#FFFFFF" text-anchor="middle">Ajouter au panier</text>
  </g>

  <!-- product card 2 -->
  <g transform="translate(216,310)">
    <rect width="166" height="258" rx="8" fill="#FFFFFF" stroke="#E5E7EB" stroke-width="1.5"/>
    <rect x="8" y="8" width="150" height="120" rx="6" fill="#F1F3F6"/>
    <circle cx="58" cy="58" r="14" fill="#E5E7EB"/>
    <path d="M24 110 L70 70 L100 96 L134 60 L150 110 Z" fill="#E5E7EB"/>
    <text x="8" y="150" font-family="sans-serif" font-size="14" font-weight="600" fill="#1F2937">Montre minimaliste</text>
    <text x="8" y="172" font-family="sans-serif" font-size="15" font-weight="700" fill="#E3A23B">145,00 DT</text>
    <rect x="8" y="206" width="150" height="36" rx="6" fill="#1B2330"/>
    <text x="83" y="229" font-family="sans-serif" font-size="12" font-weight="600" fill="#FFFFFF" text-anchor="middle">Ajouter au panier</text>
  </g>

  <!-- product card 3 -->
  <g transform="translate(400,310)">
    <rect width="166" height="258" rx="8" fill="#FFFFFF" stroke="#E5E7EB" stroke-width="1.5"/>
    <rect x="8" y="8" width="150" height="120" rx="6" fill="#F1F3F6"/>
    <circle cx="58" cy="58" r="14" fill="#E5E7EB"/>
    <path d="M24 110 L70 70 L100 96 L134 60 L150 110 Z" fill="#E5E7EB"/>
    <text x="8" y="150" font-family="sans-serif" font-size="14" font-weight="600" fill="#1F2937">Casque audio</text>
    <text x="8" y="172" font-family="sans-serif" font-size="15" font-weight="700" fill="#E3A23B">189,00 DT</text>
    <rect x="8" y="206" width="150" height="36" rx="6" fill="#1B2330"/>
    <text x="83" y="229" font-family="sans-serif" font-size="12" font-weight="600" fill="#FFFFFF" text-anchor="middle">Ajouter au panier</text>
  </g>

  <!-- product card 4 -->
  <g transform="translate(584,310)">
    <rect width="166" height="258" rx="8" fill="#FFFFFF" stroke="#E5E7EB" stroke-width="1.5"/>
    <rect x="8" y="8" width="150" height="120" rx="6" fill="#F1F3F6"/>
    <circle cx="58" cy="58" r="14" fill="#E5E7EB"/>
    <path d="M24 110 L70 70 L100 96 L134 60 L150 110 Z" fill="#E5E7EB"/>
    <rect x="14" y="14" width="62" height="20" rx="10" fill="#E3A23B"/>
    <text x="45" y="28" font-size="11" font-weight="700" fill="#1B2330" text-anchor="middle" font-family="sans-serif">Nouveau</text>
    <text x="8" y="150" font-family="sans-serif" font-size="14" font-weight="600" fill="#1F2937">Lunettes solaires</text>
    <text x="8" y="172" font-family="sans-serif" font-size="15" font-weight="700" fill="#E3A23B">59,00 DT</text>
    <rect x="8" y="206" width="150" height="36" rx="6" fill="#1B2330"/>
    <text x="83" y="229" font-family="sans-serif" font-size="12" font-weight="600" fill="#FFFFFF" text-anchor="middle">Ajouter au panier</text>
  </g>
</svg>
